<svg xmlns="http://www.w3.org/2000/svg" width="48" height="48"><path d="M12 35h19v4H12zm0 0" fill="#1976d2"/><path d="M29 44H14c-1.102 0-2-.898-2-2v-3h19v3c0 1.102-.898 2-2 2zm0 0" fill="#2196f3"/><path d="M35 15H9v18c0 2.2 1.8 4 4 4h18c2.2 0 4-1.8 4-4zm0 0" fill="#607d8b"/><path d="M31 4H13c-2.2 0-4 1.8-4 4v8h26V8c0-2.2-1.8-4-4-4zm0 0" fill="#546e7a"/><path d="M31 13H13c-.602 0-1-.398-1-1V8c0-.602.398-1 1-1h18c.602 0 1 .398 1 1v4c0 .602-.398 1-1 1zm0 0" fill="#9ccc65"/><path d="M28 9h2v2h-2zm0 0M24 9h2v2h-2zm0 0" fill="#33691e"/><path d="M32 22h-2c-.602 0-1-.398-1-1v-2c0-.602.398-1 1-1h2c.602 0 1 .398 1 1v2c0 .602-.398 1-1 1zm0 0" fill="#ff5252"/><path d="M14 22h-2c-.602 0-1-.398-1-1v-2c0-.602.398-1 1-1h2c.602 0 1 .398 1 1v2c0 .602-.398 1-1 1zm0 0M20 22h-2c-.602 0-1-.398-1-1v-2c0-.602.398-1 1-1h2c.602 0 1 .398 1 1v2c0 .602-.398 1-1 1zm0 0M14 28h-2c-.602 0-1-.398-1-1v-2c0-.602.398-1 1-1h2c.602 0 1 .398 1 1v2c0 .602-.398 1-1 1zm0 0M20 28h-2c-.602 0-1-.398-1-1v-2c0-.602.398-1 1-1h2c.602 0 1 .398 1 1v2c0 .602-.398 1-1 1zm0 0M14 34h-2c-.602 0-1-.398-1-1v-2c0-.602.398-1 1-1h2c.602 0 1 .398 1 1v2c0 .602-.398 1-1 1zm0 0M20 34h-2c-.602 0-1-.398-1-1v-2c0-.602.398-1 1-1h2c.602 0 1 .398 1 1v2c0 .602-.398 1-1 1zm0 0M26 22h-2c-.602 0-1-.398-1-1v-2c0-.602.398-1 1-1h2c.602 0 1 .398 1 1v2c0 .602-.398 1-1 1zm0 0M26 28h-2c-.602 0-1-.398-1-1v-2c0-.602.398-1 1-1h2c.602 0 1 .398 1 1v2c0 .602-.398 1-1 1zm0 0M26 34h-2c-.602 0-1-.398-1-1v-2c0-.602.398-1 1-1h2c.602 0 1 .398 1 1v2c0 .602-.398 1-1 1zm0 0" fill="#e0e0e0"/><path d="M32 28h-2c-.602 0-1-.398-1-1v-2c0-.602.398-1 1-1h2c.602 0 1 .398 1 1v2c0 .602-.398 1-1 1zm0 0" fill="#81c784"/><path d="M32 34h-2c-.602 0-1-.398-1-1v-2c0-.602.398-1 1-1h2c.602 0 1 .398 1 1v2c0 .602-.398 1-1 1zm0 0" fill="#ffc107"/><path d="M37 32h-2V9h2c1.102 0 2 .898 2 2v19c0 1.102-.898 2-2 2zm0 0" fill="#455a64"/><path d="M24 37h3v7h-3zm0 0" fill="#263238"/></svg>